<mxfile host="65bd71144e">
    <diagram id="C5RBs43oDa-KdzZeNtuy" name="Page-1">
        <mxGraphModel dx="1143" dy="790" grid="1" gridSize="10" guides="1" tooltips="1" connect="1" arrows="1" fold="1" page="1" pageScale="1" pageWidth="827" pageHeight="1169" math="0" shadow="0">
            <root>
                <mxCell id="WIyWlLk6GJQsqaUBKTNV-0"/>
                <mxCell id="WIyWlLk6GJQsqaUBKTNV-1" parent="WIyWlLk6GJQsqaUBKTNV-0"/>
                <mxCell id="JHAvmkrhwjtrjGlPcjGC-11" value="" style="rounded=0;whiteSpace=wrap;html=1;" parent="WIyWlLk6GJQsqaUBKTNV-1" vertex="1">
                    <mxGeometry x="175" y="123.57" width="470" height="495" as="geometry"/>
                </mxCell>
                <mxCell id="JHAvmkrhwjtrjGlPcjGC-3" value="Output&lt;br&gt;Thread" style="shape=process;whiteSpace=wrap;html=1;backgroundOutline=1;" parent="WIyWlLk6GJQsqaUBKTNV-1" vertex="1">
                    <mxGeometry x="150" y="331.07" width="120" height="80" as="geometry"/>
                </mxCell>
                <mxCell id="JHAvmkrhwjtrjGlPcjGC-66" style="edgeStyle=orthogonalEdgeStyle;rounded=0;orthogonalLoop=1;jettySize=auto;html=1;exitX=0;exitY=0.75;exitDx=0;exitDy=0;entryX=0.75;entryY=0;entryDx=0;entryDy=0;startArrow=none;" parent="WIyWlLk6GJQsqaUBKTNV-1" source="GtHrgyNo8aOB3fetmTjU-2" target="JHAvmkrhwjtrjGlPcjGC-60" edge="1">
                    <mxGeometry relative="1" as="geometry"/>
                </mxCell>
                <mxCell id="JHAvmkrhwjtrjGlPcjGC-4" value="Capture&lt;br&gt;Thread" style="shape=process;whiteSpace=wrap;html=1;backgroundOutline=1;" parent="WIyWlLk6GJQsqaUBKTNV-1" vertex="1">
                    <mxGeometry x="550" y="331.07" width="120" height="80" as="geometry"/>
                </mxCell>
                <mxCell id="JHAvmkrhwjtrjGlPcjGC-67" style="edgeStyle=orthogonalEdgeStyle;rounded=0;orthogonalLoop=1;jettySize=auto;html=1;entryX=0.5;entryY=0;entryDx=0;entryDy=0;shape=link;startArrow=none;" parent="WIyWlLk6GJQsqaUBKTNV-1" source="JHAvmkrhwjtrjGlPcjGC-75" target="JHAvmkrhwjtrjGlPcjGC-3" edge="1">
                    <mxGeometry relative="1" as="geometry"/>
                </mxCell>
                <mxCell id="JHAvmkrhwjtrjGlPcjGC-68" style="edgeStyle=orthogonalEdgeStyle;rounded=0;orthogonalLoop=1;jettySize=auto;html=1;exitX=0.5;exitY=1;exitDx=0;exitDy=0;entryX=0.5;entryY=0;entryDx=0;entryDy=0;shape=link;startArrow=none;" parent="WIyWlLk6GJQsqaUBKTNV-1" source="JHAvmkrhwjtrjGlPcjGC-76" target="JHAvmkrhwjtrjGlPcjGC-4" edge="1">
                    <mxGeometry relative="1" as="geometry"/>
                </mxCell>
                <mxCell id="JHAvmkrhwjtrjGlPcjGC-13" value="Orchestrator" style="rounded=1;whiteSpace=wrap;html=1;fontSize=12;glass=0;strokeWidth=1;shadow=0;" parent="WIyWlLk6GJQsqaUBKTNV-1" vertex="1">
                    <mxGeometry x="330" y="88.57" width="160" height="80" as="geometry"/>
                </mxCell>
                <mxCell id="JHAvmkrhwjtrjGlPcjGC-14" style="edgeStyle=orthogonalEdgeStyle;rounded=0;orthogonalLoop=1;jettySize=auto;html=1;exitX=0.5;exitY=1;exitDx=0;exitDy=0;" parent="WIyWlLk6GJQsqaUBKTNV-1" source="JHAvmkrhwjtrjGlPcjGC-11" target="JHAvmkrhwjtrjGlPcjGC-11" edge="1">
                    <mxGeometry relative="1" as="geometry"/>
                </mxCell>
                <mxCell id="JHAvmkrhwjtrjGlPcjGC-18" value="" style="endArrow=classic;html=1;rounded=0;exitX=0;exitY=0.5;exitDx=0;exitDy=0;entryX=1;entryY=0.5;entryDx=0;entryDy=0;startArrow=none;" parent="WIyWlLk6GJQsqaUBKTNV-1" source="GtHrgyNo8aOB3fetmTjU-0" target="JHAvmkrhwjtrjGlPcjGC-4" edge="1">
                    <mxGeometry relative="1" as="geometry">
                        <mxPoint x="736.2000000000003" y="362.5699999999999" as="sourcePoint"/>
                        <mxPoint x="610" y="378.57" as="targetPoint"/>
                        <Array as="points"/>
                    </mxGeometry>
                </mxCell>
                <mxCell id="GtHrgyNo8aOB3fetmTjU-6" style="edgeStyle=orthogonalEdgeStyle;rounded=0;comic=0;orthogonalLoop=1;jettySize=auto;html=1;exitX=0.5;exitY=1;exitDx=0;exitDy=0;entryX=0.711;entryY=-0.006;entryDx=0;entryDy=0;entryPerimeter=0;fontSize=11;endArrow=none;endFill=0;" parent="WIyWlLk6GJQsqaUBKTNV-1" source="JHAvmkrhwjtrjGlPcjGC-20" target="GtHrgyNo8aOB3fetmTjU-0" edge="1">
                    <mxGeometry relative="1" as="geometry"/>
                </mxCell>
                <mxCell id="JHAvmkrhwjtrjGlPcjGC-20" value="camera" style="rhombus;whiteSpace=wrap;html=1;" parent="WIyWlLk6GJQsqaUBKTNV-1" vertex="1">
                    <mxGeometry x="710" y="128.57" width="80" height="80" as="geometry"/>
                </mxCell>
                <mxCell id="JHAvmkrhwjtrjGlPcjGC-21" value="Network&lt;br&gt;Tables" style="rhombus;whiteSpace=wrap;html=1;" parent="WIyWlLk6GJQsqaUBKTNV-1" vertex="1">
                    <mxGeometry x="37" y="538.57" width="80" height="80" as="geometry"/>
                </mxCell>
                <mxCell id="JHAvmkrhwjtrjGlPcjGC-25" value="" style="endArrow=classic;html=1;rounded=0;exitX=0.5;exitY=1;exitDx=0;exitDy=0;entryX=0.5;entryY=0;entryDx=0;entryDy=0;edgeStyle=orthogonalEdgeStyle;startArrow=none;" parent="WIyWlLk6GJQsqaUBKTNV-1" source="GtHrgyNo8aOB3fetmTjU-7" target="JHAvmkrhwjtrjGlPcjGC-21" edge="1">
                    <mxGeometry relative="1" as="geometry">
                        <mxPoint x="180" y="397.74" as="sourcePoint"/>
                        <mxPoint x="100" y="397.74" as="targetPoint"/>
                    </mxGeometry>
                </mxCell>
                <mxCell id="JHAvmkrhwjtrjGlPcjGC-33" value="Processing Threads" style="swimlane;" parent="WIyWlLk6GJQsqaUBKTNV-1" vertex="1">
                    <mxGeometry x="310" y="228.57" width="200" height="170" as="geometry"/>
                </mxCell>
                <mxCell id="JHAvmkrhwjtrjGlPcjGC-35" value="Thread&lt;br&gt;2&lt;span style=&quot;color: rgba(0 , 0 , 0 , 0) ; font-family: monospace ; font-size: 0px&quot;&gt;%3CmxGraphModel%3E%3Croot%3E%3CmxCell%20id%3D%220%22%2F%3E%3CmxCell%20id%3D%221%22%20parent%3D%220%22%2F%3E%3CmxCell%20id%3D%222%22%20value%3D%22Display%26lt%3Bbr%26gt%3BThead%22%20style%3D%22shape%3Dprocess%3BwhiteSpace%3Dwrap%3Bhtml%3D1%3BbackgroundOutline%3D1%3B%22%20vertex%3D%221%22%20parent%3D%221%22%3E%3CmxGeometry%20x%3D%22153%22%20y%3D%22282.5%22%20width%3D%22120%22%20height%3D%2280%22%20as%3D%22geometry%22%2F%3E%3C%2FmxCell%3E%3C%2Froot%3E%3C%2FmxGraphModel%3E&lt;/span&gt;&lt;span style=&quot;color: rgba(0 , 0 , 0 , 0) ; font-family: monospace ; font-size: 0px&quot;&gt;%3CmxGraphModel%3E%3Croot%3E%3CmxCell%20id%3D%220%22%2F%3E%3CmxCell%20id%3D%221%22%20parent%3D%220%22%2F%3E%3CmxCell%20id%3D%222%22%20value%3D%22Display%26lt%3Bbr%26gt%3BThead%22%20style%3D%22shape%3Dprocess%3BwhiteSpace%3Dwrap%3Bhtml%3D1%3BbackgroundOutline%3D1%3B%22%20vertex%3D%221%22%20parent%3D%221%22%3E%3CmxGeometry%20x%3D%22153%22%20y%3D%22282.5%22%20width%3D%22120%22%20height%3D%2280%22%20as%3D%22geometry%22%2F%3E%3C%2FmxCell%3E%3C%2Froot%3E%3C%2FmxGraphModel%32&lt;/span&gt;" style="shape=process;whiteSpace=wrap;html=1;backgroundOutline=1;" parent="JHAvmkrhwjtrjGlPcjGC-33" vertex="1">
                    <mxGeometry x="110" y="30" width="87" height="60" as="geometry"/>
                </mxCell>
                <mxCell id="JHAvmkrhwjtrjGlPcjGC-34" value="Thread&lt;br&gt;1&lt;span style=&quot;color: rgba(0 , 0 , 0 , 0) ; font-family: monospace ; font-size: 0px&quot;&gt;%3CmxGraphModel%3E%3Croot%3E%3CmxCell%20id%3D%220%22%2F%3E%3CmxCell%20id%3D%221%22%20parent%3D%220%22%2F%3E%3CmxCell%20id%3D%222%22%20value%3D%22Display%26lt%3Bbr%26gt%3BThead%22%20style%3D%22shape%3Dprocess%3BwhiteSpace%3Dwrap%3Bhtml%3D1%3BbackgroundOutline%3D1%3B%22%20vertex%3D%221%22%20parent%3D%221%22%3E%3CmxGeometry%20x%3D%22153%22%20y%3D%22282.5%22%20width%3D%22120%22%20height%3D%2280%22%20as%3D%22geometry%22%2F%3E%3C%2FmxCell%3E%3C%2Froot%3E%3C%2FmxGraphModel%3E&lt;/span&gt;&lt;span style=&quot;color: rgba(0 , 0 , 0 , 0) ; font-family: monospace ; font-size: 0px&quot;&gt;%3CmxGraphModel%3E%3Croot%3E%3CmxCell%20id%3D%220%22%2F%3E%3CmxCell%20id%3D%221%22%20parent%3D%220%22%2F%3E%3CmxCell%20id%3D%222%22%20value%3D%22Display%26lt%3Bbr%26gt%3BThead%22%20style%3D%22shape%3Dprocess%3BwhiteSpace%3Dwrap%3Bhtml%3D1%3BbackgroundOutline%3D1%3B%22%20vertex%3D%221%22%20parent%3D%221%22%3E%3CmxGeometry%20x%3D%22153%22%20y%3D%22282.5%22%20width%3D%22120%22%20height%3D%2280%22%20as%3D%22geometry%22%2F%3E%3C%2FmxCell%3E%3C%2Froot%3E%3C%2FmxGraphModel%3E&lt;/span&gt;" style="shape=process;whiteSpace=wrap;html=1;backgroundOutline=1;" parent="JHAvmkrhwjtrjGlPcjGC-33" vertex="1">
                    <mxGeometry x="7" y="30" width="83" height="60" as="geometry"/>
                </mxCell>
                <mxCell id="JHAvmkrhwjtrjGlPcjGC-36" value="Thread&lt;br&gt;3&lt;span style=&quot;color: rgba(0 , 0 , 0 , 0) ; font-family: monospace ; font-size: 0px&quot;&gt;%3CmxGraphModel%3E%3Croot%3E%3CmxCell%20id%3D%220%22%2F%3E%3CmxCell%20id%3D%221%22%20parent%3D%220%22%2F%3E%3CmxCell%20id%3D%222%22%20value%3D%22Display%26lt%3Bbr%26gt%3BThead%22%20style%3D%22shape%3Dprocess%3BwhiteSpace%3Dwrap%3Bhtml%3D1%3BbackgroundOutline%3D1%3B%22%20vertex%3D%221%22%20parent%3D%221%22%3E%3CmxGeometry%20x%3D%22153%22%20y%3D%22282.5%22%20width%3D%22120%22%20height%3D%2280%22%20as%3D%22geometry%22%2F%3E%3C%2FmxCell%3E%3C%2Froot%3E%3C%2FmxGraphModel%3E&lt;/span&gt;&lt;span style=&quot;color: rgba(0 , 0 , 0 , 0) ; font-family: monospace ; font-size: 0px&quot;&gt;%3CmxGraphModel%3E%3Croot%3E%3CmxCell%20id%3D%220%22%2F%3E%3CmxCell%20id%3D%221%22%20parent%3D%220%22%2F%3E%3CmxCell%20id%3D%222%22%20value%3D%22Display%26lt%3Bbr%26gt%3BThead%22%20style%3D%22shape%3Dprocess%3BwhiteSpace%3Dwrap%3Bhtml%3D1%3BbackgroundOutline%3D1%3B%22%20vertex%3D%221%22%20parent%3D%221%22%3E%3CmxGeometry%20x%3D%22153%22%20y%3D%22282.5%22%20width%3D%22120%22%20height%3D%2280%22%20as%3D%22geometry%22%2F%3E%3C%2FmxCell%3E%3C%2Froot%3E%3C%2FmxGraphModel%33&lt;/span&gt;" style="shape=process;whiteSpace=wrap;html=1;backgroundOutline=1;" parent="JHAvmkrhwjtrjGlPcjGC-33" vertex="1">
                    <mxGeometry x="7" y="100" width="83" height="60" as="geometry"/>
                </mxCell>
                <mxCell id="JHAvmkrhwjtrjGlPcjGC-38" value="" style="shape=image;html=1;verticalAlign=top;verticalLabelPosition=bottom;labelBackgroundColor=#000000;imageAspect=0;aspect=fixed;image=https://cdn0.iconfinder.com/data/icons/font-awesome-solid-vol-2/512/ellipsis-h-128.png;imageBackground=none;imageBorder=none;part=0;" parent="JHAvmkrhwjtrjGlPcjGC-33" vertex="1">
                    <mxGeometry x="123.5" y="100" width="60" height="60" as="geometry"/>
                </mxCell>
                <mxCell id="JHAvmkrhwjtrjGlPcjGC-70" style="edgeStyle=orthogonalEdgeStyle;rounded=0;orthogonalLoop=1;jettySize=auto;html=1;exitX=0.5;exitY=0;exitDx=0;exitDy=0;startArrow=none;entryX=0.686;entryY=1;entryDx=0;entryDy=0;entryPerimeter=0;" parent="WIyWlLk6GJQsqaUBKTNV-1" source="GtHrgyNo8aOB3fetmTjU-4" target="JHAvmkrhwjtrjGlPcjGC-3" edge="1">
                    <mxGeometry relative="1" as="geometry">
                        <mxPoint x="225" y="408.57" as="targetPoint"/>
                    </mxGeometry>
                </mxCell>
                <mxCell id="JHAvmkrhwjtrjGlPcjGC-58" value="Processed&lt;br&gt;Images" style="shape=internalStorage;whiteSpace=wrap;html=1;dx=15;dy=15;rounded=1;arcSize=8;strokeWidth=2;shadow=0;sketch=0;" parent="WIyWlLk6GJQsqaUBKTNV-1" vertex="1">
                    <mxGeometry x="237" y="478.57" width="150" height="120" as="geometry"/>
                </mxCell>
                <mxCell id="JHAvmkrhwjtrjGlPcjGC-60" value="Unprocessed&lt;br&gt;Images" style="shape=internalStorage;whiteSpace=wrap;html=1;dx=15;dy=15;rounded=1;arcSize=8;strokeWidth=2;shadow=0;sketch=0;" parent="WIyWlLk6GJQsqaUBKTNV-1" vertex="1">
                    <mxGeometry x="447" y="478.57" width="150" height="120" as="geometry"/>
                </mxCell>
                <mxCell id="JHAvmkrhwjtrjGlPcjGC-76" value="1.B" style="text;html=1;strokeColor=none;fillColor=none;align=center;verticalAlign=middle;whiteSpace=wrap;rounded=0;shadow=0;sketch=0;" parent="WIyWlLk6GJQsqaUBKTNV-1" vertex="1">
                    <mxGeometry x="580" y="198.57" width="60" height="20" as="geometry"/>
                </mxCell>
                <mxCell id="JHAvmkrhwjtrjGlPcjGC-78" value="" style="edgeStyle=orthogonalEdgeStyle;rounded=0;orthogonalLoop=1;jettySize=auto;html=1;exitX=1;exitY=0.75;exitDx=0;exitDy=0;entryX=0.5;entryY=0;entryDx=0;entryDy=0;shape=link;endArrow=none;" parent="WIyWlLk6GJQsqaUBKTNV-1" source="JHAvmkrhwjtrjGlPcjGC-13" target="JHAvmkrhwjtrjGlPcjGC-76" edge="1">
                    <mxGeometry relative="1" as="geometry">
                        <mxPoint x="490" y="148.57" as="sourcePoint"/>
                        <mxPoint x="610" y="331.07" as="targetPoint"/>
                    </mxGeometry>
                </mxCell>
                <mxCell id="JHAvmkrhwjtrjGlPcjGC-75" value="1.A" style="text;html=1;strokeColor=none;fillColor=none;align=center;verticalAlign=middle;whiteSpace=wrap;rounded=0;shadow=0;sketch=0;" parent="WIyWlLk6GJQsqaUBKTNV-1" vertex="1">
                    <mxGeometry x="180" y="198.57" width="60" height="20" as="geometry"/>
                </mxCell>
                <mxCell id="JHAvmkrhwjtrjGlPcjGC-79" value="" style="edgeStyle=orthogonalEdgeStyle;rounded=0;orthogonalLoop=1;jettySize=auto;html=1;exitX=0;exitY=0.75;exitDx=0;exitDy=0;entryX=0.5;entryY=0;entryDx=0;entryDy=0;shape=link;endArrow=none;" parent="WIyWlLk6GJQsqaUBKTNV-1" source="JHAvmkrhwjtrjGlPcjGC-13" target="JHAvmkrhwjtrjGlPcjGC-75" edge="1">
                    <mxGeometry relative="1" as="geometry">
                        <mxPoint x="330" y="148.57" as="sourcePoint"/>
                        <mxPoint x="210" y="331.07" as="targetPoint"/>
                    </mxGeometry>
                </mxCell>
                <mxCell id="GtHrgyNo8aOB3fetmTjU-17" style="edgeStyle=orthogonalEdgeStyle;shape=link;rounded=0;comic=0;orthogonalLoop=1;jettySize=auto;html=1;exitX=1;exitY=0.5;exitDx=0;exitDy=0;entryX=0.568;entryY=0.008;entryDx=0;entryDy=0;entryPerimeter=0;fontSize=13;endArrow=none;endFill=0;" parent="WIyWlLk6GJQsqaUBKTNV-1" source="JHAvmkrhwjtrjGlPcjGC-80" target="JHAvmkrhwjtrjGlPcjGC-60" edge="1">
                    <mxGeometry relative="1" as="geometry"/>
                </mxCell>
                <mxCell id="GtHrgyNo8aOB3fetmTjU-20" style="edgeStyle=orthogonalEdgeStyle;shape=link;rounded=0;comic=0;orthogonalLoop=1;jettySize=auto;html=1;exitX=0;exitY=0.5;exitDx=0;exitDy=0;entryX=0.25;entryY=1;entryDx=0;entryDy=0;fontSize=13;endArrow=none;endFill=0;" parent="WIyWlLk6GJQsqaUBKTNV-1" source="JHAvmkrhwjtrjGlPcjGC-80" target="JHAvmkrhwjtrjGlPcjGC-13" edge="1">
                    <mxGeometry relative="1" as="geometry"/>
                </mxCell>
                <mxCell id="GtHrgyNo8aOB3fetmTjU-23" style="edgeStyle=orthogonalEdgeStyle;shape=link;rounded=0;comic=0;orthogonalLoop=1;jettySize=auto;html=1;exitX=0.5;exitY=1;exitDx=0;exitDy=0;entryX=0.58;entryY=0.004;entryDx=0;entryDy=0;entryPerimeter=0;fontSize=13;endArrow=none;endFill=0;" parent="WIyWlLk6GJQsqaUBKTNV-1" source="JHAvmkrhwjtrjGlPcjGC-80" target="JHAvmkrhwjtrjGlPcjGC-33" edge="1">
                    <mxGeometry relative="1" as="geometry"/>
                </mxCell>
                <mxCell id="JHAvmkrhwjtrjGlPcjGC-80" value="1.C" style="text;html=1;strokeColor=none;fillColor=none;align=center;verticalAlign=middle;whiteSpace=wrap;rounded=0;shadow=0;sketch=0;" parent="WIyWlLk6GJQsqaUBKTNV-1" vertex="1">
                    <mxGeometry x="411" y="178.57" width="30" height="20" as="geometry"/>
                </mxCell>
                <mxCell id="GtHrgyNo8aOB3fetmTjU-14" style="edgeStyle=orthogonalEdgeStyle;rounded=0;comic=0;orthogonalLoop=1;jettySize=auto;html=1;exitX=0.5;exitY=0;exitDx=0;exitDy=0;fontSize=13;endArrow=none;endFill=0;" parent="WIyWlLk6GJQsqaUBKTNV-1" source="JHAvmkrhwjtrjGlPcjGC-82" edge="1">
                    <mxGeometry relative="1" as="geometry">
                        <mxPoint x="345" y="398.57" as="targetPoint"/>
                    </mxGeometry>
                </mxCell>
                <mxCell id="JHAvmkrhwjtrjGlPcjGC-82" value="&lt;font style=&quot;font-size: 11px&quot;&gt;outputs processed images&lt;/font&gt;" style="text;html=1;strokeColor=none;fillColor=none;align=center;verticalAlign=middle;whiteSpace=wrap;rounded=0;shadow=0;sketch=0;" parent="WIyWlLk6GJQsqaUBKTNV-1" vertex="1">
                    <mxGeometry x="310" y="408.57" width="70" height="52.5" as="geometry"/>
                </mxCell>
                <mxCell id="JHAvmkrhwjtrjGlPcjGC-87" style="edgeStyle=orthogonalEdgeStyle;rounded=0;comic=0;orthogonalLoop=1;jettySize=auto;html=1;exitX=0.5;exitY=1;exitDx=0;exitDy=0;fontSize=10;entryX=0.5;entryY=1;entryDx=0;entryDy=0;endArrow=none;endFill=0;" parent="WIyWlLk6GJQsqaUBKTNV-1" target="JHAvmkrhwjtrjGlPcjGC-84" edge="1">
                    <mxGeometry relative="1" as="geometry">
                        <mxPoint x="492" y="478.57" as="sourcePoint"/>
                    </mxGeometry>
                </mxCell>
                <mxCell id="JHAvmkrhwjtrjGlPcjGC-93" style="edgeStyle=orthogonalEdgeStyle;rounded=0;comic=0;orthogonalLoop=1;jettySize=auto;html=1;exitX=0.5;exitY=0;exitDx=0;exitDy=0;fontSize=10;endArrow=classic;endFill=1;" parent="WIyWlLk6GJQsqaUBKTNV-1" source="JHAvmkrhwjtrjGlPcjGC-84" edge="1">
                    <mxGeometry relative="1" as="geometry">
                        <mxPoint x="492" y="398.57" as="targetPoint"/>
                    </mxGeometry>
                </mxCell>
                <mxCell id="JHAvmkrhwjtrjGlPcjGC-84" value="&lt;font style=&quot;font-size: 11px&quot;&gt;Intakes unprocessed&lt;br&gt;Image&lt;/font&gt;" style="text;html=1;strokeColor=none;fillColor=none;align=center;verticalAlign=middle;whiteSpace=wrap;rounded=0;shadow=0;sketch=0;" parent="WIyWlLk6GJQsqaUBKTNV-1" vertex="1">
                    <mxGeometry x="457" y="418.57" width="70" height="50" as="geometry"/>
                </mxCell>
                <mxCell id="JHAvmkrhwjtrjGlPcjGC-91" value="" style="endArrow=classic;html=1;rounded=0;comic=0;fontSize=10;exitX=0.5;exitY=1;exitDx=0;exitDy=0;" parent="WIyWlLk6GJQsqaUBKTNV-1" source="JHAvmkrhwjtrjGlPcjGC-82" edge="1">
                    <mxGeometry width="50" height="50" relative="1" as="geometry">
                        <mxPoint x="397" y="458.57" as="sourcePoint"/>
                        <mxPoint x="345" y="478.57" as="targetPoint"/>
                    </mxGeometry>
                </mxCell>
                <mxCell id="GtHrgyNo8aOB3fetmTjU-0" value="Captures&lt;br&gt;Images" style="text;html=1;strokeColor=none;fillColor=none;align=center;verticalAlign=middle;whiteSpace=wrap;rounded=0;shadow=0;sketch=0;fontSize=11;" parent="WIyWlLk6GJQsqaUBKTNV-1" vertex="1">
                    <mxGeometry x="707" y="356.07" width="60" height="30" as="geometry"/>
                </mxCell>
                <mxCell id="GtHrgyNo8aOB3fetmTjU-2" value="Adds&lt;br&gt;new&lt;br&gt;Images" style="text;html=1;strokeColor=none;fillColor=none;align=center;verticalAlign=middle;whiteSpace=wrap;rounded=0;shadow=0;sketch=0;fontSize=11;" parent="WIyWlLk6GJQsqaUBKTNV-1" vertex="1">
                    <mxGeometry x="567" y="428.57" width="48" height="42.5" as="geometry"/>
                </mxCell>
                <mxCell id="GtHrgyNo8aOB3fetmTjU-3" value="" style="edgeStyle=orthogonalEdgeStyle;rounded=0;orthogonalLoop=1;jettySize=auto;html=1;exitX=0.5;exitY=1;exitDx=0;exitDy=0;entryX=0.75;entryY=0;entryDx=0;entryDy=0;endArrow=none;" parent="WIyWlLk6GJQsqaUBKTNV-1" source="JHAvmkrhwjtrjGlPcjGC-4" target="GtHrgyNo8aOB3fetmTjU-2" edge="1">
                    <mxGeometry relative="1" as="geometry">
                        <mxPoint x="610" y="411.0700000000001" as="sourcePoint"/>
                        <mxPoint x="559.5000000000002" y="478.5700000000001" as="targetPoint"/>
                    </mxGeometry>
                </mxCell>
                <mxCell id="GtHrgyNo8aOB3fetmTjU-4" value="Takes&lt;br&gt;Images" style="text;html=1;strokeColor=none;fillColor=none;align=center;verticalAlign=middle;whiteSpace=wrap;rounded=0;shadow=0;sketch=0;fontSize=11;" parent="WIyWlLk6GJQsqaUBKTNV-1" vertex="1">
                    <mxGeometry x="207" y="431.07" width="50" height="30" as="geometry"/>
                </mxCell>
                <mxCell id="GtHrgyNo8aOB3fetmTjU-5" value="" style="edgeStyle=orthogonalEdgeStyle;rounded=0;orthogonalLoop=1;jettySize=auto;html=1;exitX=0.25;exitY=0;exitDx=0;exitDy=0;entryX=1;entryY=0.75;entryDx=0;entryDy=0;endArrow=none;" parent="WIyWlLk6GJQsqaUBKTNV-1" source="JHAvmkrhwjtrjGlPcjGC-58" target="GtHrgyNo8aOB3fetmTjU-4" edge="1">
                    <mxGeometry relative="1" as="geometry">
                        <mxPoint x="274.5" y="478.5700000000001" as="sourcePoint"/>
                        <mxPoint x="210" y="411.0700000000001" as="targetPoint"/>
                        <Array as="points">
                            <mxPoint x="267" y="478.57"/>
                            <mxPoint x="267" y="453.57"/>
                        </Array>
                    </mxGeometry>
                </mxCell>
                <mxCell id="GtHrgyNo8aOB3fetmTjU-7" value="Images&lt;br&gt;and&lt;br&gt;Position&lt;br&gt;Data" style="text;html=1;strokeColor=none;fillColor=none;align=center;verticalAlign=middle;whiteSpace=wrap;rounded=0;shadow=0;sketch=0;fontSize=11;" parent="WIyWlLk6GJQsqaUBKTNV-1" vertex="1">
                    <mxGeometry x="47" y="356.07" width="60" height="65" as="geometry"/>
                </mxCell>
                <mxCell id="GtHrgyNo8aOB3fetmTjU-8" value="" style="endArrow=none;html=1;rounded=0;exitX=-0.001;exitY=0.723;exitDx=0;exitDy=0;edgeStyle=orthogonalEdgeStyle;entryX=1;entryY=0.5;entryDx=0;entryDy=0;exitPerimeter=0;" parent="WIyWlLk6GJQsqaUBKTNV-1" source="JHAvmkrhwjtrjGlPcjGC-3" target="GtHrgyNo8aOB3fetmTjU-7" edge="1">
                    <mxGeometry relative="1" as="geometry">
                        <mxPoint x="150" y="391.07" as="sourcePoint"/>
                        <mxPoint x="117" y="391.57" as="targetPoint"/>
                    </mxGeometry>
                </mxCell>
                <mxCell id="GtHrgyNo8aOB3fetmTjU-10" value="&lt;h1&gt;&lt;font style=&quot;font-size: 33px&quot;&gt;The Orchestrator&lt;/font&gt;&lt;/h1&gt;&lt;div&gt;&lt;span style=&quot;font-size: 21px&quot;&gt;Over sees the video processing, and logs as needed.&lt;/span&gt;&lt;br&gt;&lt;/div&gt;&lt;p style=&quot;font-size: 21px&quot;&gt;&lt;font style=&quot;font-size: 21px&quot;&gt;1.A -&amp;gt; Monitors Output thread to ensure it maintains it's connection&lt;/font&gt;&lt;/p&gt;&lt;p style=&quot;font-size: 21px&quot;&gt;&lt;font style=&quot;font-size: 21px&quot;&gt;&lt;br&gt;1.B -&amp;gt; Monitors Input thread to ensure it continues to get a camera feed&lt;/font&gt;&lt;/p&gt;&lt;p style=&quot;font-size: 21px&quot;&gt;&lt;font style=&quot;font-size: 21px&quot;&gt;&lt;span style=&quot;white-space: pre&quot;&gt; &lt;/span&gt;If there is no longer a camera feed, it will try to reinitialize it. If that fails it will: log the error, report the error to it's controller, then end itself and all of it's children&lt;br&gt;&lt;/font&gt;&lt;/p&gt;&lt;p style=&quot;font-size: 21px&quot;&gt;&lt;font style=&quot;font-size: 21px&quot;&gt;1.C -&amp;gt; Monitors the unprocessed Images buffer.&lt;br&gt;&lt;/font&gt;&lt;/p&gt;&lt;p style=&quot;font-size: 21px&quot;&gt;&lt;font style=&quot;font-size: 21px&quot;&gt;&lt;span style=&quot;white-space: pre&quot;&gt; &lt;/span&gt;If the buffer is filling up faster than it's emptying, it will spawn more processing thread until it balanced.&lt;br&gt;&lt;br&gt;&lt;span style=&quot;white-space: pre&quot;&gt; &lt;/span&gt;If the process threads are idling, it will slowly kill them off until it reaches equilibrium.&lt;/font&gt;&lt;br&gt;&lt;/p&gt;" style="text;html=1;strokeColor=none;fillColor=none;spacing=5;spacingTop=-20;whiteSpace=wrap;overflow=hidden;rounded=0;shadow=0;sketch=0;fontSize=11;" parent="WIyWlLk6GJQsqaUBKTNV-1" vertex="1">
                    <mxGeometry x="37" y="650" width="763" height="510" as="geometry"/>
                </mxCell>
                <mxCell id="GtHrgyNo8aOB3fetmTjU-26" value="&lt;font style=&quot;font-size: 43px&quot;&gt;The Orchestrator&lt;/font&gt;" style="text;strokeColor=none;fillColor=none;html=1;fontSize=24;fontStyle=1;verticalAlign=middle;align=center;shadow=0;sketch=0;" parent="WIyWlLk6GJQsqaUBKTNV-1" vertex="1">
                    <mxGeometry width="370" height="80" as="geometry"/>
                </mxCell>
                <mxCell id="0" value="&lt;font style=&quot;font-size: 29px&quot;&gt;By: Elijah Immer&lt;/font&gt;" style="text;html=1;strokeColor=none;fillColor=none;align=center;verticalAlign=middle;whiteSpace=wrap;rounded=0;" parent="WIyWlLk6GJQsqaUBKTNV-1" vertex="1">
                    <mxGeometry x="590" y="1110" width="230" height="50" as="geometry"/>
                </mxCell>
            </root>
        </mxGraphModel>
    </diagram>
</mxfile>